<mxfile host="app.diagrams.net" agent="Mozilla/5.0 (Windows NT 10.0; Win64; x64) AppleWebKit/537.36 (KHTML, like Gecko) Chrome/135.0.0.0 Safari/537.36" version="26.2.14">
  <diagram name="Página-1" id="QVSNBLa9dAaH_rVYMj_R">
    <mxGraphModel grid="1" page="1" gridSize="10" guides="1" tooltips="1" connect="1" arrows="1" fold="1" pageScale="1" pageWidth="827" pageHeight="1169" math="0" shadow="0">
      <root>
        <mxCell id="0" />
        <mxCell id="1" parent="0" />
        <mxCell id="yXl-iHgW7FPdrO2PKrM6-32" value="" style="rounded=0;whiteSpace=wrap;html=1;fillColor=#dae8fc;strokeColor=#6c8ebf;" vertex="1" parent="1">
          <mxGeometry x="140" y="640" width="360" height="190" as="geometry" />
        </mxCell>
        <mxCell id="yXl-iHgW7FPdrO2PKrM6-33" value="Gestão de Cliente" style="rounded=0;whiteSpace=wrap;html=1;fillColor=#f8cecc;strokeColor=#b85450;" vertex="1" parent="1">
          <mxGeometry x="170" y="705" width="120" height="60" as="geometry" />
        </mxCell>
        <mxCell id="yXl-iHgW7FPdrO2PKrM6-34" value="&lt;b&gt;&lt;font style=&quot;font-size: 24px;&quot; face=&quot;Georgia&quot;&gt;Atendimento&lt;/font&gt;&lt;/b&gt;" style="text;html=1;align=center;verticalAlign=middle;resizable=0;points=[];autosize=1;strokeColor=none;fillColor=none;" vertex="1" parent="1">
          <mxGeometry x="225" y="640" width="190" height="40" as="geometry" />
        </mxCell>
        <mxCell id="yXl-iHgW7FPdrO2PKrM6-35" style="edgeStyle=orthogonalEdgeStyle;rounded=0;orthogonalLoop=1;jettySize=auto;html=1;entryX=0.5;entryY=0;entryDx=0;entryDy=0;" edge="1" parent="1" source="yXl-iHgW7FPdrO2PKrM6-37" target="yXl-iHgW7FPdrO2PKrM6-55">
          <mxGeometry relative="1" as="geometry">
            <mxPoint x="1330" y="640" as="targetPoint" />
          </mxGeometry>
        </mxCell>
        <mxCell id="yXl-iHgW7FPdrO2PKrM6-36" value="&lt;b&gt;parceria&lt;/b&gt;" style="edgeLabel;html=1;align=center;verticalAlign=middle;resizable=0;points=[];" connectable="0" vertex="1" parent="yXl-iHgW7FPdrO2PKrM6-35">
          <mxGeometry x="-0.2213" y="3" relative="1" as="geometry">
            <mxPoint x="-1" as="offset" />
          </mxGeometry>
        </mxCell>
        <mxCell id="yXl-iHgW7FPdrO2PKrM6-37" value="" style="rounded=0;whiteSpace=wrap;html=1;fillColor=#dae8fc;strokeColor=#6c8ebf;" vertex="1" parent="1">
          <mxGeometry x="650" y="505" width="370" height="210" as="geometry" />
        </mxCell>
        <mxCell id="yXl-iHgW7FPdrO2PKrM6-38" value="&lt;font face=&quot;Georgia&quot; style=&quot;font-size: 24px;&quot;&gt;&lt;b&gt;Pedido&lt;/b&gt;&lt;/font&gt;" style="text;html=1;align=center;verticalAlign=middle;resizable=0;points=[];autosize=1;strokeColor=none;fillColor=none;" vertex="1" parent="1">
          <mxGeometry x="775" y="520" width="110" height="40" as="geometry" />
        </mxCell>
        <mxCell id="yXl-iHgW7FPdrO2PKrM6-39" style="edgeStyle=orthogonalEdgeStyle;rounded=0;orthogonalLoop=1;jettySize=auto;html=1;entryX=0.5;entryY=0;entryDx=0;entryDy=0;endArrow=none;startFill=1;startArrow=classic;" edge="1" parent="1" source="yXl-iHgW7FPdrO2PKrM6-43" target="yXl-iHgW7FPdrO2PKrM6-37">
          <mxGeometry relative="1" as="geometry" />
        </mxCell>
        <mxCell id="yXl-iHgW7FPdrO2PKrM6-40" value="&lt;b&gt;conforma&lt;/b&gt;" style="edgeLabel;html=1;align=center;verticalAlign=middle;resizable=0;points=[];" connectable="0" vertex="1" parent="yXl-iHgW7FPdrO2PKrM6-39">
          <mxGeometry x="-0.0381" relative="1" as="geometry">
            <mxPoint as="offset" />
          </mxGeometry>
        </mxCell>
        <mxCell id="yXl-iHgW7FPdrO2PKrM6-41" value="&lt;b&gt;fornecedor&lt;/b&gt;" style="edgeLabel;html=1;align=center;verticalAlign=middle;resizable=0;points=[];" connectable="0" vertex="1" parent="yXl-iHgW7FPdrO2PKrM6-39">
          <mxGeometry x="-0.8228" y="1" relative="1" as="geometry">
            <mxPoint as="offset" />
          </mxGeometry>
        </mxCell>
        <mxCell id="yXl-iHgW7FPdrO2PKrM6-42" value="&lt;b&gt;cliente&lt;/b&gt;" style="edgeLabel;html=1;align=center;verticalAlign=middle;resizable=0;points=[];" connectable="0" vertex="1" parent="yXl-iHgW7FPdrO2PKrM6-39">
          <mxGeometry x="0.8614" relative="1" as="geometry">
            <mxPoint as="offset" />
          </mxGeometry>
        </mxCell>
        <mxCell id="yXl-iHgW7FPdrO2PKrM6-43" value="" style="rounded=0;whiteSpace=wrap;html=1;fillColor=#e1d5e7;strokeColor=#9673a6;" vertex="1" parent="1">
          <mxGeometry x="650" y="100" width="370" height="215" as="geometry" />
        </mxCell>
        <mxCell id="yXl-iHgW7FPdrO2PKrM6-44" value="Gestão do pedido" style="rounded=0;whiteSpace=wrap;html=1;fillColor=#d5e8d4;strokeColor=#82b366;" vertex="1" parent="1">
          <mxGeometry x="680" y="590" width="120" height="60" as="geometry" />
        </mxCell>
        <mxCell id="yXl-iHgW7FPdrO2PKrM6-45" style="edgeStyle=orthogonalEdgeStyle;rounded=0;orthogonalLoop=1;jettySize=auto;html=1;entryX=0.5;entryY=1;entryDx=0;entryDy=0;startArrow=classic;startFill=1;endArrow=none;" edge="1" parent="1" source="yXl-iHgW7FPdrO2PKrM6-49" target="yXl-iHgW7FPdrO2PKrM6-37">
          <mxGeometry relative="1" as="geometry" />
        </mxCell>
        <mxCell id="yXl-iHgW7FPdrO2PKrM6-46" value="&lt;font style=&quot;font-size: 12px;&quot;&gt;&lt;b&gt;parceria&lt;/b&gt;&lt;/font&gt;" style="edgeLabel;html=1;align=center;verticalAlign=middle;resizable=0;points=[];" connectable="0" vertex="1" parent="yXl-iHgW7FPdrO2PKrM6-45">
          <mxGeometry x="0.0076" y="3" relative="1" as="geometry">
            <mxPoint as="offset" />
          </mxGeometry>
        </mxCell>
        <mxCell id="yXl-iHgW7FPdrO2PKrM6-47" style="edgeStyle=orthogonalEdgeStyle;rounded=0;orthogonalLoop=1;jettySize=auto;html=1;entryX=0;entryY=0.5;entryDx=0;entryDy=0;endArrow=none;startFill=1;startArrow=classic;" edge="1" parent="1" source="yXl-iHgW7FPdrO2PKrM6-49" target="yXl-iHgW7FPdrO2PKrM6-55">
          <mxGeometry relative="1" as="geometry" />
        </mxCell>
        <mxCell id="yXl-iHgW7FPdrO2PKrM6-48" value="&lt;font style=&quot;font-size: 12px;&quot;&gt;&lt;b&gt;parceria&lt;/b&gt;&lt;/font&gt;" style="edgeLabel;html=1;align=center;verticalAlign=middle;resizable=0;points=[];" connectable="0" vertex="1" parent="yXl-iHgW7FPdrO2PKrM6-47">
          <mxGeometry x="0.5588" y="1" relative="1" as="geometry">
            <mxPoint y="56" as="offset" />
          </mxGeometry>
        </mxCell>
        <mxCell id="yXl-iHgW7FPdrO2PKrM6-49" value="" style="rounded=0;whiteSpace=wrap;html=1;fillColor=#dae8fc;strokeColor=#6c8ebf;" vertex="1" parent="1">
          <mxGeometry x="650" y="800" width="370" height="210" as="geometry" />
        </mxCell>
        <mxCell id="yXl-iHgW7FPdrO2PKrM6-50" value="Gestão de categoria" style="rounded=0;whiteSpace=wrap;html=1;fillColor=#d5e8d4;strokeColor=#82b366;" vertex="1" parent="1">
          <mxGeometry x="680" y="850" width="120" height="60" as="geometry" />
        </mxCell>
        <mxCell id="yXl-iHgW7FPdrO2PKrM6-51" value="Gestão de produto" style="rounded=0;whiteSpace=wrap;html=1;fillColor=#d5e8d4;strokeColor=#82b366;" vertex="1" parent="1">
          <mxGeometry x="870" y="850" width="120" height="60" as="geometry" />
        </mxCell>
        <mxCell id="yXl-iHgW7FPdrO2PKrM6-52" value="Listagem de produtos" style="rounded=0;whiteSpace=wrap;html=1;fillColor=#d5e8d4;strokeColor=#82b366;" vertex="1" parent="1">
          <mxGeometry x="680" y="920" width="120" height="60" as="geometry" />
        </mxCell>
        <mxCell id="yXl-iHgW7FPdrO2PKrM6-53" value="Listagem de categorias" style="rounded=0;whiteSpace=wrap;html=1;fillColor=#d5e8d4;strokeColor=#82b366;" vertex="1" parent="1">
          <mxGeometry x="870" y="920" width="120" height="60" as="geometry" />
        </mxCell>
        <mxCell id="yXl-iHgW7FPdrO2PKrM6-54" value="&lt;font style=&quot;font-size: 24px;&quot; face=&quot;Georgia&quot;&gt;&lt;b&gt;Estoque&lt;/b&gt;&lt;/font&gt;" style="text;html=1;align=center;verticalAlign=middle;resizable=0;points=[];autosize=1;strokeColor=none;fillColor=none;" vertex="1" parent="1">
          <mxGeometry x="770" y="800" width="120" height="40" as="geometry" />
        </mxCell>
        <mxCell id="yXl-iHgW7FPdrO2PKrM6-55" value="" style="rounded=0;whiteSpace=wrap;html=1;fillColor=#dae8fc;strokeColor=#6c8ebf;" vertex="1" parent="1">
          <mxGeometry x="1130" y="670" width="370" height="210" as="geometry" />
        </mxCell>
        <mxCell id="yXl-iHgW7FPdrO2PKrM6-56" value="Gestão do preparo do pedido" style="rounded=0;whiteSpace=wrap;html=1;fillColor=#d5e8d4;strokeColor=#82b366;" vertex="1" parent="1">
          <mxGeometry x="1170" y="760" width="120" height="60" as="geometry" />
        </mxCell>
        <mxCell id="yXl-iHgW7FPdrO2PKrM6-57" value="Listagem da situação do preparo do pedido" style="rounded=0;whiteSpace=wrap;html=1;fillColor=#d5e8d4;strokeColor=#82b366;" vertex="1" parent="1">
          <mxGeometry x="1350" y="760" width="120" height="60" as="geometry" />
        </mxCell>
        <mxCell id="yXl-iHgW7FPdrO2PKrM6-58" value="&lt;font face=&quot;Georgia&quot; style=&quot;font-size: 24px;&quot;&gt;&lt;b&gt;Área de Trabalho - Cozinha&lt;/b&gt;&lt;/font&gt;" style="text;html=1;align=center;verticalAlign=middle;resizable=0;points=[];autosize=1;strokeColor=none;fillColor=none;" vertex="1" parent="1">
          <mxGeometry x="1135" y="675" width="360" height="40" as="geometry" />
        </mxCell>
        <mxCell id="yXl-iHgW7FPdrO2PKrM6-59" value="Gestão Administrativa" style="rounded=0;whiteSpace=wrap;html=1;fillColor=#f8cecc;strokeColor=#b85450;" vertex="1" parent="1">
          <mxGeometry x="340" y="705" width="120" height="60" as="geometry" />
        </mxCell>
        <mxCell id="yXl-iHgW7FPdrO2PKrM6-60" value="Gestão do pagamento do pedido" style="whiteSpace=wrap;html=1;glass=0;rounded=0;fillColor=#d5e8d4;strokeColor=#82b366;strokeWidth=1;" vertex="1" parent="1">
          <mxGeometry x="870" y="590" width="120" height="60" as="geometry" />
        </mxCell>
        <mxCell id="yXl-iHgW7FPdrO2PKrM6-61" value="&lt;b&gt;Mercado Pago&lt;/b&gt;" style="rounded=0;whiteSpace=wrap;html=1;fillColor=#d5e8d4;strokeColor=#82b366;strokeWidth=1;" vertex="1" parent="1">
          <mxGeometry x="746.88" y="190" width="166.25" height="52.5" as="geometry" />
        </mxCell>
        <mxCell id="yXl-iHgW7FPdrO2PKrM6-62" value="&lt;font face=&quot;Georgia&quot; style=&quot;font-size: 24px;&quot;&gt;&lt;b&gt;Gateway Pagamento&lt;/b&gt;&lt;/font&gt;" style="text;html=1;align=center;verticalAlign=middle;resizable=0;points=[];autosize=1;strokeColor=none;fillColor=none;" vertex="1" parent="1">
          <mxGeometry x="700" y="110" width="270" height="40" as="geometry" />
        </mxCell>
      </root>
    </mxGraphModel>
  </diagram>
</mxfile>
